<svg id="Layer_1" data-name="Layer 1" xmlns="http://www.w3.org/2000/svg" viewBox="0 0 805.49 225.36"><defs><style>.cls-1{fill:#fff;}</style></defs><path class="cls-1" d="M80.68,17.42a80.28,80.28,0,0,1-8.53-.94c-4.44-1-6.29-3.57-6.24-8s2-6.92,6.35-8a13.12,13.12,0,0,1,3-.4c14.6,0,29.2-.06,43.8,0a13.91,13.91,0,0,1,5.06,1c3.8,1.54,5.41,4.63,5.08,8.65a7,7,0,0,1-5.84,6.62,82.77,82.77,0,0,1-8.43,1.12,3.46,3.46,0,0,0-.4.84c-.93,10.46-.76,9.9,9.36,13.09a100.3,100.3,0,0,1,44.94,29c11,12.2,18.89,26.17,22.84,42.19A102,102,0,0,1,193,144.56c-4,23.17-15.6,41.86-33.21,57.09-18.94,16.37-41,24.7-65.91,23.62s-46.11-11-63.91-28.69A100,100,0,0,1,2.24,146.15c-4.9-22-1.6-42.87,8.36-63C22.75,58.66,42.36,42.6,67.19,32.35a49.22,49.22,0,0,1,10.4-2.76c2.34-.41,3.24-1.3,3.13-3.64C80.58,23.11,80.68,20.25,80.68,17.42Zm0,27.8C52.94,45.5,12,94,16.92,120.65c3.23,0,6.53,0,9.84,0,5.48,0,7.87,2,7.92,6.39s-2.71,7.1-7.83,7.19c-3.42.06-6.85,0-10.3,0,2.29,35.53,33.09,72.48,75.35,75.58,45.85,3.37,83.49-34.19,86.5-75-.26-.13-.51-.37-.77-.37-3-.07-6.07-.08-9.1-.15-5.61-.12-9-3-8.86-7.32.14-4.17,3-6.27,8.63-6.33,3.38,0,6.76,0,10.16,0-2.08-43.78-41.66-73.33-63.72-75.29-1.51,13.86-3.46,17.16-11.85,19.3V17.31H92v48C81.61,61.59,80.14,53.87,80.67,45.22Z"/><path class="cls-1" d="M146.52,82.89c.37,7.5-3.51,13.68-8.74,19.08-6.83,7-13.87,13.91-20.94,20.71-2.84,2.74-2.11,4.74.36,7.24,8,8.13,16.19,16.1,23.61,24.73,8.92,10.37,7.43,26.88-2.95,35.84a16.57,16.57,0,0,1-9,3.47c-2,.16-5.17-1.6-6-3.36-.66-1.37,1.28-4.19,2.43-6.14.6-1,2-1.55,3-2.4,6.75-5.86,7.5-15.47,1.34-21.94-7-7.31-14.12-14.47-21.52-21.35-8.19-7.61-8.89-15.41-1.19-23.62,7.11-7.57,14.53-14.86,21.79-22.29,7.1-7.27,6.65-16.75-1.13-23.44-1.42-1.22-3.34-2.07-4.32-3.56s-1.81-3.8-1.37-5.37c.39-1.37,2.73-3.19,4.06-3.08,3,.25,6.47.86,8.82,2.59C142.22,65.45,146.72,72.78,146.52,82.89Z"/><path class="cls-1" d="M48.57,170.29c-.85-7.47,2.45-13.35,7.49-18.52,7.26-7.44,14.49-14.91,21.78-22.33,3.45-3.51,3.35-4-.28-7.56-7.66-7.45-15.45-14.8-22.69-22.64C43.22,86.61,47.34,66,62.78,58.47c1.63-.79,3.75-1.63,5.33-1.21,2,.51,4.41,2,5.09,3.64.55,1.37-.82,4-2,5.48-1.86,2.32-4.68,3.89-6.43,6.27-4.35,5.93-4.49,12.18-.09,18C67.94,95,72,98.85,75.72,102.83c4.76,5,9.82,9.81,14.32,15.06,5.21,6.06,5,11.87-.58,17.77-6.75,7.13-13.64,14.14-20.83,20.81-9.54,8.85-9.52,19.49.52,27.67,2.48,2,4.14,4.5,2.52,7.48S67,194.68,64,193.89c-7.37-1.95-14.84-11.28-15.42-19.2C48.48,173.25,48.57,171.8,48.57,170.29Z"/><path class="cls-1" d="M96.39,112c-7.34-7.22-15.92-15.53-24.3-24-1.1-1.13-2-3.62-1.44-4.9s2.84-2.56,4.39-2.58c14.86-.24,29.72-.35,44.58-.2,4.53,0,6.83,4.22,3.94,7C114.73,95.65,105.51,103.7,96.39,112Z"/><path class="cls-1" d="M97.46,155.08c-3.46,0-6.92.07-10.38-.05-.89,0-2.38-.52-2.5-1.05a3.83,3.83,0,0,1,.75-3c3.28-3.63,6.63-7.23,10.21-10.55.74-.69,3.16-.77,3.86-.11,3.65,3.45,7,7.19,10.42,10.92.59.65,1.18,2.21.87,2.56a4.33,4.33,0,0,1-2.86,1.27c-3.45.15-6.91.05-10.37.05Z"/><path class="cls-1" d="M85.69,175.06c1.3,0,2.6.08,3.89,0,3-.24,4.66,1.05,4.61,4.16,0,2.91-1,5.13-4.39,5.24-2.45.07-4.89,0-7.34,0-3.7,0-5-2.21-5.08-5.54,0-3.75,2.5-4,5.29-3.81C83.68,175.1,84.69,175.06,85.69,175.06Z"/><path class="cls-1" d="M109,200.24c-6.72,0-8.57-1.39-7.91-5.86.39-2.57,1.76-4.08,4.38-3.5,4.11.9,9.64-2.93,12.16,3,1.47,3.46-.88,6.13-4.74,6.33C111.57,200.29,110.27,200.24,109,200.24Z"/><path class="cls-1" d="M85.71,200.23c-1.29,0-2.58,0-3.87,0-3.32-.1-4.44-2.27-4.51-5.13-.07-3,1.66-4.35,4.63-4.29,2.58.06,5.16.1,7.74,0,2.83-.12,4.42,1.09,4.39,3.94s-.81,5.47-4.51,5.49C88.29,200.24,87,200.23,85.71,200.23Z"/><path class="cls-1" d="M109.3,169c-1.15,0-2.31-.1-3.45,0-3.52.36-4.56-1.59-4.59-4.67s.88-5,4.45-4.82a49.8,49.8,0,0,0,6.91,0c3.45-.27,5.16,1.24,5.18,4.66s-1.52,5.11-5,4.83c-1.15-.09-2.3,0-3.46,0Z"/><path class="cls-1" d="M85.81,159.57a30.37,30.37,0,0,0,3.44,0C92.6,159.18,94,160.72,94,164s-1,5.3-4.74,5.07a44.79,44.79,0,0,0-6,0c-3.44.25-5.61-.94-5.75-4.64-.14-4,2.15-5.23,5.78-4.84a22.19,22.19,0,0,0,2.58,0Z"/><path class="cls-1" d="M109.51,175.09c1.3,0,2.6.07,3.9,0,2.79-.18,4.31.9,4.46,3.87s-1,5.13-4.18,5.36c-2.73.2-5.48.14-8.21.1-3.76-.06-4.23-2.58-4.3-5.63-.07-3.29,1.82-3.82,4.44-3.71,1.3.05,2.6,0,3.89,0Z"/><path class="cls-1" d="M202.37,35.78A36.71,36.71,0,0,1,205.23,21,34.38,34.38,0,0,1,213,9.71,33.94,33.94,0,0,1,224.46,2.5,38.51,38.51,0,0,1,238.36,0a43.3,43.3,0,0,1,10.37,1.12,48.31,48.31,0,0,1,7.83,2.56,36,36,0,0,1,6.54,3.58L252.37,26.17a37.57,37.57,0,0,0-3.58-2.35,35.27,35.27,0,0,0-4.14-1.58,17.78,17.78,0,0,0-5.48-.77,14.71,14.71,0,0,0-10.47,4.19,14.09,14.09,0,0,0-3.12,4.55,13.93,13.93,0,0,0-1.12,5.57,13.48,13.48,0,0,0,1.17,5.58,14.17,14.17,0,0,0,3.22,4.54A15.17,15.17,0,0,0,233.66,49a15.83,15.83,0,0,0,6,1.13,18.89,18.89,0,0,0,5.82-.82,21.66,21.66,0,0,0,4.3-1.84,15.88,15.88,0,0,0,3.58-2.66l10.74,18.91a29.73,29.73,0,0,1-6.55,4,54.88,54.88,0,0,1-7.87,2.66,41,41,0,0,1-10.54,1.23A40.44,40.44,0,0,1,224.46,69a34.56,34.56,0,0,1-11.66-7.31,33.13,33.13,0,0,1-7.67-11.3A37.34,37.34,0,0,1,202.37,35.78Zm12.88,0a25,25,0,0,1,1.69-9.2,22.49,22.49,0,0,1,4.75-7.46,22.16,22.16,0,0,1,7.47-5A25.11,25.11,0,0,1,239,12.27a28.3,28.3,0,0,1,4.76.36,19.64,19.64,0,0,1,3.52.87,13.28,13.28,0,0,1,3,1.22l1.43-2.45c-1.09-.48-2.25-.92-3.47-1.33a39.16,39.16,0,0,0-4-.92A29.72,29.72,0,0,0,239,9.61a27.29,27.29,0,0,0-10,1.84,25.48,25.48,0,0,0-8.39,5.27,25.81,25.81,0,0,0-8,19.06,26.77,26.77,0,0,0,2.09,10.84,24.31,24.31,0,0,0,5.78,8.23,25.66,25.66,0,0,0,8.59,5.27A29.56,29.56,0,0,0,239.48,62a27.33,27.33,0,0,0,5.53-.51,32.89,32.89,0,0,0,4.19-1.13,19.59,19.59,0,0,0,3.47-1.64l-1.43-2.45a12.71,12.71,0,0,1-3.06,1.54,24.79,24.79,0,0,1-3.69,1.07,23.82,23.82,0,0,1-5,.46,26.68,26.68,0,0,1-10.12-1.84,22.56,22.56,0,0,1-7.62-5,21.94,21.94,0,0,1-4.8-7.47A25,25,0,0,1,215.25,35.78Z"/><path class="cls-1" d="M265.15,35.78A34.75,34.75,0,0,1,268,21.88,35.79,35.79,0,0,1,287,2.81a35.81,35.81,0,0,1,27.81,0A35.73,35.73,0,0,1,333.9,21.88a34.75,34.75,0,0,1,2.82,13.9,34.77,34.77,0,0,1-2.82,13.91,35.73,35.73,0,0,1-19.06,19.07,35.81,35.81,0,0,1-27.81,0A35.79,35.79,0,0,1,268,49.69,34.76,34.76,0,0,1,265.15,35.78Zm9.61,0A25.37,25.37,0,0,0,276.81,46a26.26,26.26,0,0,0,13.95,13.95,26.28,26.28,0,0,0,20.35,0,26.33,26.33,0,0,0,8.33-5.62A26.81,26.81,0,0,0,325.07,46a26.4,26.4,0,0,0,0-20.35,26.47,26.47,0,0,0-14-14,26.4,26.4,0,0,0-20.35,0,26.57,26.57,0,0,0-8.34,5.63,26.3,26.3,0,0,0-5.61,8.33A25.35,25.35,0,0,0,274.76,35.78ZM300.94,59.3a22.88,22.88,0,0,1-9.16-1.84,23.91,23.91,0,0,1-12.52-12.53,22.63,22.63,0,0,1-1.84-9.15,22.7,22.7,0,0,1,1.84-9.15,23.94,23.94,0,0,1,12.52-12.52,23.67,23.67,0,0,1,18.3,0,23.78,23.78,0,0,1,7.47,5.06,24.2,24.2,0,0,1,5.06,7.46,22.7,22.7,0,0,1,1.84,9.15,22.63,22.63,0,0,1-1.84,9.15,23.88,23.88,0,0,1-12.53,12.53A22.82,22.82,0,0,1,300.94,59.3ZM286.62,35.78a13.94,13.94,0,0,0,1.12,5.58A14.42,14.42,0,0,0,295.36,49a14.29,14.29,0,0,0,11.14,0,14.48,14.48,0,0,0,4.56-3.07,14.73,14.73,0,0,0,3.07-4.54,14.44,14.44,0,0,0,0-11.15,14.37,14.37,0,0,0-7.63-7.62,14.41,14.41,0,0,0-11.14,0,14.6,14.6,0,0,0-4.55,3.07,14.44,14.44,0,0,0-3.07,4.55A13.93,13.93,0,0,0,286.62,35.78Z"/><path class="cls-1" d="M370.26,71.57a38.88,38.88,0,0,1-11.66-1.64A24.05,24.05,0,0,1,349.7,65,21.54,21.54,0,0,1,344,56.74,31.64,31.64,0,0,1,342,45V1.63h21.79V44.07a8.71,8.71,0,0,0,1.48,5.47c1,1.26,2.63,1.88,5,1.88s4-.62,4.95-1.88a8.71,8.71,0,0,0,1.49-5.47V1.63h21.87V45a31.65,31.65,0,0,1-2,11.76A21.21,21.21,0,0,1,390.86,65a24.6,24.6,0,0,1-8.95,4.91A38.85,38.85,0,0,1,370.26,71.57Zm0-12.27q-15.35,0-15.34-15V9.81h-2.66V44.27q0,8.58,4.65,13.14T370.26,62q8.69,0,13.38-4.55t4.71-13.14V9.81h-2.76V44.27Q385.59,59.3,370.26,59.3Z"/><path class="cls-1" d="M405.42,1.63h17.89l18.81,26.28V1.63H463.5v68.2h-18L426.79,43.66V69.83H405.42Zm12.16,60V14.42l33.74,47.23H454V9.81h-2.67V57.05L417.58,9.81h-2.65V61.65Z"/><path class="cls-1" d="M479.65,19.53H467.07V1.63h47.65v17.9H502.14v50.3H479.65Zm12.58,42.12V12.27h14.62V9.81H474.94v2.46h14.62V61.65Z"/><path class="cls-1" d="M518.29,69.83V1.63h18.92a62.59,62.59,0,0,1,17.13,2.15A34.22,34.22,0,0,1,567,10.22a27.61,27.61,0,0,1,7.87,10.69,37.5,37.5,0,0,1,2.71,14.77,37.55,37.55,0,0,1-2.71,14.78A27.58,27.58,0,0,1,567,61.14a34.9,34.9,0,0,1-12.67,6.49,61,61,0,0,1-17.13,2.2Zm10.23-8.18h8.69q14.92,0,22.55-6.8t7.61-19.17q0-12.37-7.61-19.12T537.21,9.81h-8.69Zm2.65-2.45V12.27h6q13,0,20.19,5.88t7.21,17.53q0,11.66-7.21,17.59T537.21,59.2Zm8.9-8.79q7.68,0,11.86-3.64t4.2-11.09q0-7.45-4.2-11t-11.86-3.58Z"/><path class="cls-1" d="M581.69,35.78a34.75,34.75,0,0,1,2.81-13.9A35.73,35.73,0,0,1,603.56,2.81a35.83,35.83,0,0,1,27.82,0,35.73,35.73,0,0,1,19.06,19.07,34.75,34.75,0,0,1,2.81,13.9,34.76,34.76,0,0,1-2.81,13.91,35.73,35.73,0,0,1-19.06,19.07,35.83,35.83,0,0,1-27.82,0A35.73,35.73,0,0,1,584.5,49.69,34.76,34.76,0,0,1,581.69,35.78Zm9.61,0A25.37,25.37,0,0,0,593.35,46,26.26,26.26,0,0,0,607.3,59.91a26.25,26.25,0,0,0,20.34,0A26.32,26.32,0,0,0,641.6,46a26.4,26.4,0,0,0,0-20.35,26.38,26.38,0,0,0-14-14,26.37,26.37,0,0,0-20.34,0A26.57,26.57,0,0,0,599,17.28a26.3,26.3,0,0,0-5.61,8.33A25.35,25.35,0,0,0,591.3,35.78ZM617.48,59.3a22.88,22.88,0,0,1-9.16-1.84A23.91,23.91,0,0,1,595.8,44.93a23.55,23.55,0,0,1,0-18.3,23.94,23.94,0,0,1,12.52-12.52,23.67,23.67,0,0,1,18.3,0,23.63,23.63,0,0,1,7.46,5.06,24.05,24.05,0,0,1,5.07,7.46,23.67,23.67,0,0,1,0,18.3,24,24,0,0,1-12.53,12.53A22.82,22.82,0,0,1,617.48,59.3ZM603.16,35.78a13.94,13.94,0,0,0,1.12,5.58A14.42,14.42,0,0,0,611.9,49,14.29,14.29,0,0,0,623,49a14.42,14.42,0,0,0,7.62-7.61,14.32,14.32,0,0,0,0-11.15,14.44,14.44,0,0,0-3.07-4.55A14.6,14.6,0,0,0,623,22.59a14.41,14.41,0,0,0-11.14,0,14.6,14.6,0,0,0-4.55,3.07,14.44,14.44,0,0,0-3.07,4.55A13.93,13.93,0,0,0,603.16,35.78Z"/><path class="cls-1" d="M653.25,1.63h23.11l7.88,23.83,7.87-23.83H707l7.87,23.83,7.87-23.83h23.11L723.4,69.83h-17l-6.85-20.65-6.85,20.65h-17Zm32.72,60,13.6-42.84,13.6,42.84h2.55L732.8,9.81H730L714.5,57,699.57,9.81,684.65,57,669.1,9.81h-2.76l17.08,51.84Z"/><path class="cls-1" d="M747.42,1.63h17.89l18.81,26.28V1.63h21.37v68.2h-18L768.78,43.66V69.83H747.42Zm12.16,60V14.42l33.74,47.23H796V9.81h-2.66V57.05L759.58,9.81h-2.65V61.65Z"/><path class="cls-1" d="M209.6,82.75h82v36.49H254v15.43h36.9v34.61H254v52.54H209.6Zm26.27,122.39V154.48h39.62v-5H235.87v-45h41.71v-5H230.46V205.14Z"/><path class="cls-1" d="M298.85,152.39A71,71,0,0,1,304.58,124a72.89,72.89,0,0,1,38.89-38.88,73,73,0,0,1,56.71,0A72.92,72.92,0,0,1,439.06,124a72.93,72.93,0,0,1,0,56.72,73,73,0,0,1-38.88,38.88,73,73,0,0,1-56.71,0,73,73,0,0,1-38.89-38.88A71,71,0,0,1,298.85,152.39Zm19.6,0a51.72,51.72,0,0,0,4.17,20.74,53.65,53.65,0,0,0,28.46,28.46,53.69,53.69,0,0,0,41.49,0A53.74,53.74,0,0,0,421,173.13a53.69,53.69,0,0,0,0-41.49,53.83,53.83,0,0,0-28.46-28.46,53.69,53.69,0,0,0-41.49,0,53.74,53.74,0,0,0-28.46,28.46A51.77,51.77,0,0,0,318.45,152.39Zm53.37,48a46.43,46.43,0,0,1-18.66-3.75,48.8,48.8,0,0,1-25.54-25.54,48.3,48.3,0,0,1,0-37.32,48.8,48.8,0,0,1,25.54-25.54,48.3,48.3,0,0,1,37.32,0A48.86,48.86,0,0,1,416,133.73a48.3,48.3,0,0,1,0,37.32,48.86,48.86,0,0,1-25.55,25.54A46.43,46.43,0,0,1,371.82,200.34Zm-29.19-48a28.17,28.17,0,0,0,2.3,11.36,29.3,29.3,0,0,0,15.52,15.54,29.35,29.35,0,0,0,22.73,0,29.25,29.25,0,0,0,15.54-15.54,29.32,29.32,0,0,0,0-22.72,29.25,29.25,0,0,0-15.54-15.54,29.35,29.35,0,0,0-22.73,0,29.62,29.62,0,0,0-9.27,6.26,29.3,29.3,0,0,0-6.25,9.28A28.17,28.17,0,0,0,342.63,152.39Z"/><path class="cls-1" d="M456.25,82.75h48a82.72,82.72,0,0,1,24.71,3.54,57.57,57.57,0,0,1,19.7,10.43,48,48,0,0,1,13,17A54.81,54.81,0,0,1,566.35,137a47.87,47.87,0,0,1-2.92,17.72,54.57,54.57,0,0,1-6.47,12.1,45.18,45.18,0,0,1-9.38,9.17l26.06,45.87H521.52l-20.85-35.24v35.24H456.25Zm43.37,90.7a75,75,0,0,0,15.85-1.67l19.81,33.36h6.46l-20.85-35a39.18,39.18,0,0,0,17.94-12.2q6.66-8.24,6.67-21.37a34.61,34.61,0,0,0-3.55-16,33.9,33.9,0,0,0-9.7-11.57,43.41,43.41,0,0,0-14.48-7.09,65.47,65.47,0,0,0-18.15-2.4H477.11V205.14h5.41V173.45Zm-17.1-5v-64h17.1q19,0,29.71,8.33t10.75,23.77q0,15.44-10.75,23.67t-29.71,8.23Zm18.15-17.3H503a24.36,24.36,0,0,0,13.45-3.55q5.52-3.54,5.52-11.88t-5.52-11.89A24.44,24.44,0,0,0,503,120.28h-2.29Z"/><path class="cls-1" d="M665.38,130.08A25.37,25.37,0,0,0,656,125a36.66,36.66,0,0,0-11-1.77,27.21,27.21,0,0,0-11.05,2.19,26.11,26.11,0,0,0-8.66,6,27.75,27.75,0,0,0-5.73,9.27,32.29,32.29,0,0,0-2.09,11.68,29.42,29.42,0,0,0,2.3,11.67,28,28,0,0,0,6.25,9.28,28.77,28.77,0,0,0,9.28,6,29.55,29.55,0,0,0,11.36,2.19,27.75,27.75,0,0,0,12.93-3,31,31,0,0,0,10-8.24H657V141.13h53.59v46.28A77,77,0,0,1,699.15,203a72.87,72.87,0,0,1-14.9,12,73.61,73.61,0,0,1-66,4.79,71.86,71.86,0,0,1-38.89-38.57,72.09,72.09,0,0,1-5.73-28.77A74.72,74.72,0,0,1,579.06,124,72.88,72.88,0,0,1,594,100.78a69.73,69.73,0,0,1,22.52-15.63,68.84,68.84,0,0,1,28-5.73,78.63,78.63,0,0,1,20.22,2.29,77.28,77.28,0,0,1,14.38,5.21,52.9,52.9,0,0,1,11.48,7.3Zm2.08-26.9a34.73,34.73,0,0,0-6-2.08,58.39,58.39,0,0,0-6.89-1.46,55.85,55.85,0,0,0-8.75-.63,53.7,53.7,0,0,0-20.64,4,51.75,51.75,0,0,0-16.68,11,50.25,50.25,0,0,0-11.16,16.79,56,56,0,0,0-4.06,21.68,54.63,54.63,0,0,0,4.17,21.68,50,50,0,0,0,11.47,16.79,53.33,53.33,0,0,0,17,10.94,54.28,54.28,0,0,0,20.74,4A51,51,0,0,0,672.67,199a55.48,55.48,0,0,0,19-18V153.64h-22.1v5h16.68v20.85a47.16,47.16,0,0,1-39.62,20.85A50.13,50.13,0,0,1,628,196.9a45.91,45.91,0,0,1-15.21-9.8,45.45,45.45,0,0,1-10.33-15.22,49.47,49.47,0,0,1-3.75-19.49,51,51,0,0,1,3.64-19.5,46.1,46.1,0,0,1,10-15.21,44.06,44.06,0,0,1,14.9-9.8,49.15,49.15,0,0,1,18.56-3.44,38.27,38.27,0,0,1,7.09.62q3.33.63,5.84,1.25c1.94.56,3.75,1.11,5.42,1.67Z"/><path class="cls-1" d="M722.09,82.75H804v36.49H766.51v15.43h36.9v34.61h-36.9v16.05h39v36.49h-83.4Zm68,122.39v-5H748.36V154.48H788v-5H748.36v-45h41.71v-5H743V205.14Z"/></svg>