<svg id="Layer_1" data-name="Layer 1" xmlns="http://www.w3.org/2000/svg" viewBox="0 0 224.24 259.77"><defs><style>.cls-1{fill:#fff;}</style></defs><path class="cls-1" d="M93,20.08A91.62,91.62,0,0,1,83.17,19c-5.12-1.13-7.25-4.11-7.2-9.25s2.26-8,7.32-9.24A14.32,14.32,0,0,1,86.73,0c16.83,0,33.66-.07,50.49,0a15.89,15.89,0,0,1,5.83,1.1c4.39,1.78,6.24,5.34,5.86,10-.34,4.14-2.86,6.72-6.74,7.63a96.89,96.89,0,0,1-9.7,1.3,3.32,3.32,0,0,0-.46,1c-1.09,12-.88,11.4,10.78,15.09a115.49,115.49,0,0,1,51.8,33.38c12.65,14.06,21.77,30.17,26.33,48.63a117.68,117.68,0,0,1,1.49,48.51c-4.58,26.7-18,48.24-38.29,65.8-21.82,18.87-47.24,28.47-76,27.23S55,246.94,34.49,226.59A115.31,115.31,0,0,1,2.58,168.46c-5.65-25.33-1.84-49.41,9.64-72.59,14-28.26,36.61-46.76,65.23-58.58a56.44,56.44,0,0,1,12-3.18c2.7-.47,3.74-1.5,3.61-4.19C92.88,26.63,93,23.34,93,20.08Zm0,32.05c-32,.32-79.19,56.21-73.48,86.94,3.73,0,7.53,0,11.34,0,6.32.07,9.08,2.31,9.13,7.37.05,5.22-3.12,8.19-9,8.29-3.95.07-7.9,0-11.88,0,2.64,41,38.15,83.54,86.86,87.12,52.85,3.88,96.23-39.41,99.7-86.5-.3-.15-.59-.42-.88-.43-3.5-.07-7-.09-10.5-.16-6.46-.15-10.38-3.4-10.21-8.44.16-4.8,3.45-7.23,10-7.29,3.9,0,7.79,0,11.71,0-2.4-50.46-48-84.52-73.44-86.79-1.75,16-4,19.79-13.66,22.26V20H106V75.24C94.06,71,92.37,62.1,93,52.13Z"/><path class="cls-1" d="M168.89,95.54c.43,8.65-4,15.77-10.08,22-7.88,8.13-16,16-24.13,23.88-3.28,3.16-2.43,5.46.41,8.34,9.21,9.37,18.66,18.56,27.21,28.5,10.28,12,8.57,31-3.4,41.32a19.12,19.12,0,0,1-10.37,4c-2.31.19-6-1.83-6.93-3.86-.76-1.58,1.46-4.83,2.79-7.09.7-1.19,2.37-1.78,3.5-2.76,7.77-6.75,8.64-17.83,1.54-25.29-8-8.42-16.28-16.68-24.81-24.6-9.44-8.78-10.25-17.77-1.36-27.23C131.45,124,140,115.6,148.37,107c8.19-8.38,7.66-19.32-1.3-27-1.64-1.41-3.85-2.39-5-4.1s-2.09-4.39-1.58-6.2c.45-1.57,3.15-3.68,4.68-3.55,3.48.29,7.45,1,10.16,3C163.92,75.44,169.12,83.89,168.89,95.54Z"/><path class="cls-1" d="M56,196.28c-1-8.61,2.82-15.38,8.63-21.35,8.37-8.57,16.7-17.18,25.1-25.73,4-4,3.86-4.65-.32-8.72-8.83-8.58-17.81-17-26.16-26.09-13.43-14.55-8.67-38.29,9.13-47,1.87-.92,4.32-1.88,6.13-1.4,2.26.59,5.09,2.27,5.87,4.2.64,1.58-.94,4.58-2.33,6.31-2.14,2.68-5.39,4.49-7.4,7.23-5,6.83-5.18,14-.11,20.79,3.78,5,8.42,9.41,12.75,14,5.48,5.8,11.31,11.3,16.5,17.35,6,7,5.77,13.68-.67,20.49-7.77,8.22-15.72,16.3-24,24-11,10.19-11,22.46.61,31.89,2.85,2.32,4.77,5.18,2.9,8.62s-5.4,3.52-8.83,2.62c-8.5-2.26-17.1-13-17.77-22.13C55.88,199.7,56,198,56,196.28Z"/><path class="cls-1" d="M111.11,129c-8.47-8.32-18.36-17.91-28-27.73-1.28-1.29-2.25-4.17-1.67-5.64s3.28-3,5.07-3c17.12-.28,34.26-.39,51.38-.22,5.22,0,7.87,4.86,4.55,8C132.24,110.25,121.61,119.53,111.11,129Z"/><path class="cls-1" d="M112.33,178.75c-4,0-8,.09-12-.05-1,0-2.75-.6-2.89-1.21a4.45,4.45,0,0,1,.87-3.5c3.78-4.18,7.63-8.33,11.77-12.16.85-.79,3.64-.88,4.44-.13,4.21,4,8.12,8.29,12,12.59.67.75,1.36,2.55,1,3a5,5,0,0,1-3.3,1.45c-4,.17-8,.07-12,.07Z"/><path class="cls-1" d="M98.78,201.78c1.49,0,3,.1,4.47,0,3.51-.28,5.38,1.21,5.32,4.8,0,3.35-1.21,5.91-5.06,6-2.82.09-5.64,0-8.46,0-4.27,0-5.81-2.55-5.86-6.39-.06-4.32,2.88-4.55,6.1-4.39C96.45,201.83,97.61,201.78,98.78,201.78Z"/><path class="cls-1" d="M125.61,230.81c-7.74,0-9.88-1.6-9.11-6.76.44-3,2-4.7,5-4,4.73,1,11.11-3.38,14,3.48,1.69,4-1,7.07-5.47,7.29C128.61,230.86,127.11,230.8,125.61,230.81Z"/><path class="cls-1" d="M98.79,230.8c-1.48,0-3,0-4.45,0-3.83-.11-5.13-2.62-5.2-5.91-.08-3.48,1.91-5,5.33-4.94,3,.07,6,.11,8.92,0,3.26-.14,5.09,1.25,5.06,4.54s-.94,6.3-5.2,6.32Z"/><path class="cls-1" d="M126,194.84c-1.33,0-2.67-.11-4,0-4,.41-5.25-1.84-5.28-5.39s1-5.81,5.12-5.55a58.88,58.88,0,0,0,8,0c4-.3,5.95,1.44,6,5.37s-1.75,5.89-5.81,5.57c-1.32-.1-2.65,0-4,0Z"/><path class="cls-1" d="M98.9,183.93a37.53,37.53,0,0,0,4,0c3.86-.43,5.48,1.35,5.43,5.11s-1.18,6.11-5.46,5.83a50.23,50.23,0,0,0-6.94,0c-4,.29-6.47-1.09-6.62-5.35-.17-4.65,2.47-6,6.65-5.58a26.74,26.74,0,0,0,3,0Z"/><path class="cls-1" d="M126.23,201.82c1.5,0,3,.08,4.49,0,3.21-.2,5,1,5.14,4.46s-1.09,5.91-4.82,6.18c-3.14.23-6.31.16-9.46.12-4.34-.07-4.88-3-5-6.49-.09-3.79,2.09-4.41,5.12-4.28,1.49.06,3,0,4.48,0Z"/></svg>